# xmcd
#
# Track frame offsets:
# 150
# 19909
# 47552
# 75127
# 98803
# 145267
# 168669
# 207015
#
# Disc length: 3191 seconds
#
#
# Revision: 2
# Processed by: cddbd v1.5.1PL2 Copyright (c) Steve Scherf et al.
# Submitted via: FreeRIP 2.941 
#
DISCID=5c0c7508
DTITLE=Loreena McKennitt - The Book Of Secrets
DYEAR=1997
DGENRE=Folklore
TTITLE0=Prologue
TTITLE1=The Mummers` Dance
TTITLE2=Skelling
TTITLE3=Marco Polo
TTITLE4=The Highwayman
TTITLE5=La Serenissima
TTITLE6=Night Ride Across The Caucasus
TTITLE7=Dante`s Praver
EXTD=
EXTT0=
EXTT1=
EXTT2=
EXTT3=
EXTT4=
EXTT5=
EXTT6=
EXTT7=
PLAYORDER=
